<?xml version="1.0" standalone="yes"?>
<svg xmlns="http://www.w3.org/2000/svg" width="266" height="185">
<path style="fill:#010101; stroke:none;" d="M0 0L0 185L266 185L266 0L0 0z"/>
<path style="fill:#efd9c3; stroke:none;" d="M124 37L99 38L100 55L124 55C124 72.8162 118.251 94.5664 126.259 111C133.614 126.093 152.723 128.972 159.427 143C162.758 149.969 159.618 156.913 159 164C165.336 161.83 165.526 152.695 167 147L164 155L163 155C162.984 130.75 138.458 129.886 128.324 111C119.903 95.3066 125.749 71.4484 125 54C119.389 54 108.1 56.1631 103.318 52.9722C99.9204 50.7051 99.7718 41.4216 103.317 39.2153C107.138 36.8373 119.717 38.0158 124 39L127.603 19.6034L143 18L143 38L156 38L156 37L144 37C144 32.443 145.907 22.3083 142.972 18.6034C140.814 15.8782 126.301 15.559 124.349 18.6034C121.968 22.3164 124 32.5445 124 37z"/>
<path style="fill:#f69c23; stroke:none;" d="M124 39C119.701 37.7411 107.421 36.6635 103.303 38.7531C99.9143 40.4728 99.7551 50.7163 102.603 52.9722C106.883 56.3621 119.679 54 125 54C125.166 62.0361 126.478 69.9026 125.91 78C125.03 90.5623 122.108 101.229 128.88 113C138.982 130.56 162.936 131.735 163 155L164 155C165.798 141.644 164.232 133.97 162 121L155 117C155.577 123.35 158.979 125.575 163 130L156 131L147 121L147 120L153 122C155.301 113.891 146.252 104.203 138 105L144 118L142 121C134.485 115.99 130.2 108.798 128 100C127.554 98.2148 125.67 93.2173 127 91C128.053 89.2449 130.392 89.4338 131 87C131.963 83.1491 128.047 67.5116 134 69L133 51L129 53L128 53L124 50L124 49C126.408 49 130.574 49.6766 132.278 47.5C134.522 44.6326 133.252 39.6969 130 39L130 38L133 38L134 18C122.816 18.1325 126.218 30.4287 124 39z"/>
<path style="fill:#e1520d; stroke:none;" d="M134 18C133.222 24.1894 135.925 34.2657 130 38L130 39L133 39C132.975 46.0743 131.398 48.821 124 49L124 50L128 53L129 53L133 51C134.863 65.7414 131.621 77.2893 141 90L142 90L143 53C148.268 53.6623 159.908 55.575 164.682 53.3819C168.122 51.8018 168.215 41.2107 165.397 39.0316C162.153 36.5238 147.548 38.0377 143 38C142.328 29.4904 144.753 18.1274 134 18z"/>
<path style="fill:#7f7f7f; stroke:none;" d="M141 18L142 19L141 18z"/>
<path style="fill:#f69c23; stroke:none;" d="M142 18L142 31L143 31L142 18z"/>
<path style="fill:#7f7f7f; stroke:none;" d="M142 31L142 34L143 34L142 31z"/>
<path style="fill:#f69c23; stroke:none;" d="M150 38L150 39L160 39L150 38z"/>
<path style="fill:#efd9c3; stroke:none;" d="M157 37L157 38L161 38L157 37z"/>
<path style="fill:#7f7f7f; stroke:none;" d="M166 38L167 39L166 38z"/>
<path style="fill:#e1520d; stroke:none;" d="M105 44C104.037 50.2836 113.96 47.7682 118 52L123 50L121 44C115.095 47.1988 111.177 45.7527 105 44z"/>
<path style="fill:#7f7f7f; stroke:none;" d="M143 53L143 54L147 54L143 53M152 53L152 54L160 54L152 53M166 53L167 54L166 53z"/>
<path style="fill:#efd9c3; stroke:none;" d="M143 54L143 91C135.484 85.2342 132.567 77.2453 133 68L132 68C130.044 77.0025 135.916 90.3329 143 96L141 93C147.99 88.4686 144 63.0326 144 55L167 55L143 54z"/>
<path style="fill:#7f7f7f; stroke:none;" d="M142 66L142 70L143 70L142 66z"/>
<path style="fill:#f69c23; stroke:none;" d="M133 70L134 71L133 70M142 70L142 74L143 74L142 70M132.333 71.6667L132.667 72.3333L132.333 71.6667M133 73L133 78L134 78L133 73z"/>
<path style="fill:#010101; stroke:none;" d="M131 74C131.159 81.4415 134.211 87.2869 140 92L131 74z"/>
<path style="fill:#7f7f7f; stroke:none;" d="M142.333 74.6667L142.667 75.3333L142.333 74.6667M130.333 77.6667L130.667 78.3333L130.333 77.6667z"/>
<path style="fill:#e1520d; stroke:none;" d="M130 79C130.066 84.6801 127.448 88.7275 127.062 94.0394C126.285 104.725 132.908 115.816 142 121L144 118L138 105C145.834 105.733 154.68 113.831 153 122L147 120L147 121L156 131L163 130L155 117L161 122C156.122 105.068 139.786 93.1133 130 79z"/>
<path style="fill:#7f7f7f; stroke:none;" d="M134 79L135 80L134 79z"/>
<path style="fill:#f69c23; stroke:none;" d="M131 80L132 81L131 80M134 80L135 81L134 80z"/>
<path style="fill:#7f7f7f; stroke:none;" d="M131 81L132 82L131 81M135 82L136 83L135 82z"/>
<path style="fill:#f69c23; stroke:none;" d="M132 83L133 84L132 83M133 84L134 85L133 84M136 84L137 85L136 84z"/>
<path style="fill:#7f7f7f; stroke:none;" d="M142 84L142 88L143 88L142 84z"/>
<path style="fill:#f69c23; stroke:none;" d="M137 85L138 86L137 85M134 86L135 87L134 86z"/>
<path style="fill:#e1520d; stroke:none;" d="M136 86L137 87L136 86z"/>
<path style="fill:#f69c23; stroke:none;" d="M138 86L139 87L138 86z"/>
<path style="fill:#efd9c3; stroke:none;" d="M135 87L136 88L135 87z"/>
<path style="fill:#f69c23; stroke:none;" d="M139.333 87.6667L139.667 88.3333L139.333 87.6667M135 88L137 90L137 88L135 88M142 88L141 91L142 88M140 89L141 90L140 89M137 90L138 91L137 90z"/>
<path style="fill:#7f7f7f; stroke:none;" d="M142 90L143 91L142 90z"/>
<path style="fill:#f69c23; stroke:none;" d="M138 91L139 92L138 91M131 92L137 101L131 92z"/>
<path style="fill:#010101; stroke:none;" d="M140 92L141 93L140 92z"/>
<path style="fill:#f69c23; stroke:none;" d="M143 96L144 97L143 96M144 97L145 98L144 97M145 98L146 99L145 98M146 99L147 100L146 99M147 100L148 101L147 100M148 101L149 102L148 101M149 102L150 103L149 102M150 103L151 104L150 103z"/>
<path style="fill:#efd9c3; stroke:none;" d="M151 104L152 105L151 104M152 105L153 106L152 105M153 106L154 107L153 106z"/>
<path style="fill:#f69c23; stroke:none;" d="M153 107L154 108L153 107z"/>
<path style="fill:#efd9c3; stroke:none;" d="M113 108C115.384 127.584 97.6015 149.817 113.329 167.96C121.15 176.982 134.498 179.081 144.999 173.597C151.513 170.196 158.354 162.523 155 155L154 155L143 159L143 160L155 157C149.844 178.449 120.913 180.545 111.403 160.996C102.958 143.638 116.859 129.836 117 113L124 126C126.43 119.148 119.42 109.84 113 108z"/>
<path style="fill:#f69c23; stroke:none;" d="M154 108L155 109L154 108z"/>
<path style="fill:#efd9c3; stroke:none;" d="M155 109L156 110L155 109z"/>
<path style="fill:#f69c23; stroke:none;" d="M156 111L157 112L156 111z"/>
<path style="fill:#efd9c3; stroke:none;" d="M157 112L158 113L157 112z"/>
<path style="fill:#f69c23; stroke:none;" d="M117 113C116.633 130.233 102.572 144.066 111.403 161.985C120.63 180.71 151.72 178.788 155 157C148.585 159.237 141.43 163.341 143 171L142 173C131.446 173.54 127.22 161.491 115 163C121.819 156.637 129.041 166.643 137 163C131.135 158.135 122.602 148.252 115 148L114 158L113 158L112 143L120 147L120 117L122 118L117 113M157 113L158 114L157 113z"/>
<path style="fill:#efd9c3; stroke:none;" d="M158 114L159 115L158 114z"/>
<path style="fill:#f69c23; stroke:none;" d="M158 115L159 116L158 115z"/>
<path style="fill:#efd9c3; stroke:none;" d="M159 116L160 117L159 116z"/>
<path style="fill:#e1520d; stroke:none;" d="M120 117L120 147L112 143L113 158L114 158L115 148L137 163C129.882 165.225 119.942 156.154 115 163L142 173L143 171C142.6 165.951 144.62 163.342 149 161L149 160C145.924 159.974 142.943 159.915 140 158.891C120.136 151.98 131.279 128.672 120 117z"/>
<path style="fill:#f69c23; stroke:none;" d="M159 117L160 118L159 117z"/>
<path style="fill:#e1520d; stroke:none;" d="M144 118L147 120L144 118z"/>
<path style="fill:#efd9c3; stroke:none;" d="M160 118L161 119L160 118z"/>
<path style="fill:#f69c23; stroke:none;" d="M160 119L161 120L160 119z"/>
<path style="fill:#efd9c3; stroke:none;" d="M161 120L162 121L161 120z"/>
<path style="fill:#e1520d; stroke:none;" d="M142 121L144 124L142 121z"/>
<path style="fill:#f69c23; stroke:none;" d="M123 122L124 123L123 122z"/>
<path style="fill:#efd9c3; stroke:none;" d="M162 122L162 125L163 125L162 122M163.333 125.667L163.667 126.333L163.333 125.667z"/>
<path style="fill:#f69c23; stroke:none;" d="M124.333 126.667L124.667 127.333L124.333 126.667z"/>
<path style="fill:#7f7f7f; stroke:none;" d="M125 127L124 130L125 130L125 127z"/>
<path style="fill:#efd9c3; stroke:none;" d="M125 128L125 133L126 133L125 128M164.333 128.667L164.667 129.333L164.333 128.667M131 130C132.408 134.775 136.391 147.122 139.653 150.682C144.978 156.493 151.809 150.88 153 145L152 145C143.777 162.196 138.144 137.138 134 132C141.74 133.047 148.349 136.208 151 144C153.498 134.448 137.888 130.315 131 130M165.333 131.667L165.667 132.333L165.333 131.667z"/>
<path style="fill:#f69c23; stroke:none;" d="M134 132C136.963 136.972 137.338 144.579 140.603 148.771C143.889 152.989 150.79 151.501 151.497 145.985C152.7 136.597 141.18 132.587 134 132M125 133L125 136L126 136L125 133z"/>
<path style="fill:#efd9c3; stroke:none;" d="M126 135L127 136L126 135M166 135L167 136L166 135z"/>
<path style="fill:#7f7f7f; stroke:none;" d="M125 136L125 138L127 136L125 136z"/>
<path style="fill:#efd9c3; stroke:none;" d="M126 137L126 140L127 140L126 137M166 137L166 145L167 145L166 137z"/>
<path style="fill:#e1520d; stroke:none;" d="M147 138L143 146C146.277 144.087 148.323 141.854 147 138z"/>
<path style="fill:#f69c23; stroke:none;" d="M126.333 140.667L126.667 141.333L126.333 140.667z"/>
<path style="fill:#efd9c3; stroke:none;" d="M127 143L127 146L128 146L127 143z"/>
<path style="fill:#7f7f7f; stroke:none;" d="M152 144L153 145L152 144M166.333 145.667L166.667 146.333L166.333 145.667z"/>
<path style="fill:#efd9c3; stroke:none;" d="M128.333 146.667L128.667 147.333L128.333 146.667M129 149L130 150L129 149z"/>
<path style="fill:#f69c23; stroke:none;" d="M129 150L130 151L129 150z"/>
<path style="fill:#efd9c3; stroke:none;" d="M130 151C133.155 155.374 136.648 158.031 142 159L142 158L130 151z"/>
<path style="fill:#f69c23; stroke:none;" d="M130 152L131 153L130 152M131 153L132 154L131 153M132 154L133 155L132 154M133 155L134 156L133 155M134 156L135 157L134 156M136 157L137 158L136 157M138 158L139 159L138 158z"/>
<path style="fill:#7f7f7f; stroke:none;" d="M141 159L142 160L141 159z"/>
<path style="fill:#f69c23; stroke:none;" d="M142 159L143 160L142 159z"/>
</svg>
